<svg width="339" height="207" viewBox="0 0 339 207" fill="none" xmlns="http://www.w3.org/2000/svg">
<rect x="1" y="3.26923" width="337" height="201.856" rx="6" stroke="#5D2935" stroke-width="2"/>
<line y1="24.5" x2="316" y2="24.5" stroke="#5D2935"/>
<circle cx="13" cy="15" r="5.5" stroke="#5D2935"/>
<circle cx="27" cy="15" r="5.5" stroke="#5D2935"/>
<path d="M323.868 19.013C323.495 19.0563 323.188 18.987 322.945 18.805C322.711 18.623 322.594 18.3587 322.594 18.012C322.594 17.7347 322.685 17.427 322.867 17.089C323.058 16.751 323.3 16.3913 323.595 16.01C323.309 15.672 323.071 15.347 322.88 15.035C322.698 14.723 322.607 14.4153 322.607 14.112C322.607 13.7307 322.707 13.436 322.906 13.228C323.105 13.02 323.378 12.916 323.725 12.916C323.985 12.916 324.262 13.0113 324.557 13.202C324.852 13.3927 325.155 13.6397 325.467 13.943C325.788 13.631 326.104 13.3797 326.416 13.189C326.737 12.9897 327.053 12.89 327.365 12.89C327.694 12.89 327.954 12.994 328.145 13.202C328.344 13.41 328.431 13.683 328.405 14.021C328.379 14.3243 328.271 14.645 328.08 14.983C327.889 15.3123 327.651 15.6547 327.365 16.01C327.668 16.3827 327.915 16.7337 328.106 17.063C328.297 17.3923 328.392 17.6827 328.392 17.934C328.392 18.2633 328.288 18.5277 328.08 18.727C327.881 18.9177 327.603 19.013 327.248 19.013C327.014 19.013 326.745 18.922 326.442 18.74C326.139 18.558 325.822 18.3197 325.493 18.025C325.198 18.3023 324.912 18.5277 324.635 18.701C324.366 18.8743 324.111 18.9783 323.868 19.013Z" fill="#5D2935"/>
</svg>
