<svg width="102" height="126" viewBox="0 0 102 126" fill="none" xmlns="http://www.w3.org/2000/svg">
<g filter="url(#filter0_d_387_155)">
<path d="M94.7445 42.2771L59.3958 42.2771" stroke="#5D2935" stroke-width="5" stroke-linecap="round" stroke-linejoin="round"/>
</g>
<g filter="url(#filter1_d_387_155)">
<ellipse cx="39.3649" cy="35.5643" rx="35.3487" ry="33.5643" fill="#FFF2F1"/>
</g>
<path d="M44.2975 62.1265C28.7748 64.7254 14.0574 54.8815 11.3415 40.2562C8.62551 25.6309 18.9096 11.6011 34.4323 9.00217C49.955 6.40326 64.6724 16.2471 67.3884 30.8725C70.1043 45.4978 59.8202 59.5276 44.2975 62.1265Z" stroke="url(#paint0_linear_387_155)" stroke-width="2"/>
<g filter="url(#filter2_d_387_155)">
<path d="M94.7445 3.1189L94.7445 115" stroke="#5D2935" stroke-width="5" stroke-linecap="round" stroke-linejoin="round"/>
</g>
<path d="M40.8908 27.0886V42.323C40.8908 42.5509 40.9721 42.7258 41.1349 42.8479C41.3709 43.0188 41.6598 43.1042 42.0016 43.1042H44.3698V44.0198H35.5929V43.1042H37.6193C38.0425 43.1042 38.3558 43.0066 38.5592 42.8113C38.7627 42.6078 38.8644 42.3393 38.8644 42.0056V30.4944C38.8644 30.2584 38.7708 30.059 38.5836 29.8962C38.3965 29.7335 38.1564 29.6521 37.8634 29.6521H35.1535V28.8098C36.423 28.6471 37.4524 28.4314 38.2418 28.1628C39.0312 27.8861 39.727 27.5281 40.3292 27.0886H40.8908Z" fill="url(#paint1_linear_387_155)"/>
<defs>
<filter id="filter0_d_387_155" x="52.8958" y="39.7771" width="48.3487" height="13" filterUnits="userSpaceOnUse" color-interpolation-filters="sRGB">
<feFlood flood-opacity="0" result="BackgroundImageFix"/>
<feColorMatrix in="SourceAlpha" type="matrix" values="0 0 0 0 0 0 0 0 0 0 0 0 0 0 0 0 0 0 127 0" result="hardAlpha"/>
<feOffset dy="4"/>
<feGaussianBlur stdDeviation="2"/>
<feComposite in2="hardAlpha" operator="out"/>
<feColorMatrix type="matrix" values="0 0 0 0 0 0 0 0 0 0 0 0 0 0 0 0 0 0 0.25 0"/>
<feBlend mode="normal" in2="BackgroundImageFix" result="effect1_dropShadow_387_155"/>
<feBlend mode="normal" in="SourceGraphic" in2="effect1_dropShadow_387_155" result="shape"/>
</filter>
<filter id="filter1_d_387_155" x="0.0162125" y="2" width="78.6974" height="75.1287" filterUnits="userSpaceOnUse" color-interpolation-filters="sRGB">
<feFlood flood-opacity="0" result="BackgroundImageFix"/>
<feColorMatrix in="SourceAlpha" type="matrix" values="0 0 0 0 0 0 0 0 0 0 0 0 0 0 0 0 0 0 127 0" result="hardAlpha"/>
<feOffset dy="4"/>
<feGaussianBlur stdDeviation="2"/>
<feComposite in2="hardAlpha" operator="out"/>
<feColorMatrix type="matrix" values="0 0 0 0 0 0 0 0 0 0 0 0 0 0 0 0 0 0 0.25 0"/>
<feBlend mode="normal" in2="BackgroundImageFix" result="effect1_dropShadow_387_155"/>
<feBlend mode="normal" in="SourceGraphic" in2="effect1_dropShadow_387_155" result="shape"/>
</filter>
<filter id="filter2_d_387_155" x="88.2445" y="0.618896" width="13" height="124.881" filterUnits="userSpaceOnUse" color-interpolation-filters="sRGB">
<feFlood flood-opacity="0" result="BackgroundImageFix"/>
<feColorMatrix in="SourceAlpha" type="matrix" values="0 0 0 0 0 0 0 0 0 0 0 0 0 0 0 0 0 0 127 0" result="hardAlpha"/>
<feOffset dy="4"/>
<feGaussianBlur stdDeviation="2"/>
<feComposite in2="hardAlpha" operator="out"/>
<feColorMatrix type="matrix" values="0 0 0 0 0 0 0 0 0 0 0 0 0 0 0 0 0 0 0.25 0"/>
<feBlend mode="normal" in2="BackgroundImageFix" result="effect1_dropShadow_387_155"/>
<feBlend mode="normal" in="SourceGraphic" in2="effect1_dropShadow_387_155" result="shape"/>
</filter>
<linearGradient id="paint0_linear_387_155" x1="68.3746" y1="30.7073" x2="10.5455" y2="41.4463" gradientUnits="userSpaceOnUse">
<stop stop-color="#5D2935"/>
<stop offset="1" stop-color="#E3BEC0"/>
</linearGradient>
<linearGradient id="paint1_linear_387_155" x1="39.3649" y1="21.0198" x2="39.3649" y2="47.8712" gradientUnits="userSpaceOnUse">
<stop stop-color="#2F2D30"/>
<stop offset="1" stop-color="#717171"/>
</linearGradient>
</defs>
</svg>
