<svg width="101" height="124" viewBox="0 0 101 124" fill="none" xmlns="http://www.w3.org/2000/svg">
<g filter="url(#filter0_d_387_165)">
<path d="M42.0138 37.1338L9.02201 37.1338" stroke="#E6C5CA" stroke-opacity="0.952458" stroke-width="5" stroke-linecap="round" stroke-linejoin="round" shape-rendering="crispEdges"/>
</g>
<g filter="url(#filter1_d_387_165)">
<ellipse cx="64.0082" cy="34.9378" rx="32.9918" ry="32.9378" fill="#FFF2F1"/>
</g>
<path d="M68.6084 8.89133C83.0193 11.4282 92.6392 25.1471 90.0988 39.5307C87.5584 53.9143 73.8189 63.5211 59.408 60.9842C44.9971 58.4473 35.3772 44.7284 37.9176 30.3448C40.458 15.9612 54.1975 6.35445 68.6084 8.89133Z" stroke="url(#paint0_linear_387_165)" stroke-width="2"/>
<g filter="url(#filter2_d_387_165)">
<path d="M6.82246 3.09814L6.82246 112.891" stroke="#E6C5CA" stroke-opacity="0.952458" stroke-width="5" stroke-linecap="round" stroke-linejoin="round" shape-rendering="crispEdges"/>
</g>
<path d="M65.472 25.6356H66.2654V37.1835H69.073V38.2211H66.2654V40.8212C66.2654 41.049 66.3549 41.2321 66.534 41.3705C66.7944 41.5577 67.0955 41.6512 67.4373 41.6512H68.4749V42.5668H61.7V41.6512H62.9573C63.3805 41.6512 63.6897 41.5617 63.885 41.3827C64.0885 41.2037 64.1902 40.9432 64.1902 40.6014V38.2211H57.281V37.0492L65.472 25.6356ZM64.1902 28.9437L58.2942 37.1835H64.1902V28.9437Z" fill="url(#paint1_linear_387_165)"/>
<defs>
<filter id="filter0_d_387_165" x="2.52201" y="34.6338" width="45.9918" height="13" filterUnits="userSpaceOnUse" color-interpolation-filters="sRGB">
<feFlood flood-opacity="0" result="BackgroundImageFix"/>
<feColorMatrix in="SourceAlpha" type="matrix" values="0 0 0 0 0 0 0 0 0 0 0 0 0 0 0 0 0 0 127 0" result="hardAlpha"/>
<feOffset dy="4"/>
<feGaussianBlur stdDeviation="2"/>
<feComposite in2="hardAlpha" operator="out"/>
<feColorMatrix type="matrix" values="0 0 0 0 0 0 0 0 0 0 0 0 0 0 0 0 0 0 0.25 0"/>
<feBlend mode="normal" in2="BackgroundImageFix" result="effect1_dropShadow_387_165"/>
<feBlend mode="normal" in="SourceGraphic" in2="effect1_dropShadow_387_165" result="shape"/>
</filter>
<filter id="filter1_d_387_165" x="27.0164" y="2" width="73.9835" height="73.8757" filterUnits="userSpaceOnUse" color-interpolation-filters="sRGB">
<feFlood flood-opacity="0" result="BackgroundImageFix"/>
<feColorMatrix in="SourceAlpha" type="matrix" values="0 0 0 0 0 0 0 0 0 0 0 0 0 0 0 0 0 0 127 0" result="hardAlpha"/>
<feOffset dy="4"/>
<feGaussianBlur stdDeviation="2"/>
<feComposite in2="hardAlpha" operator="out"/>
<feColorMatrix type="matrix" values="0 0 0 0 0 0 0 0 0 0 0 0 0 0 0 0 0 0 0.25 0"/>
<feBlend mode="normal" in2="BackgroundImageFix" result="effect1_dropShadow_387_165"/>
<feBlend mode="normal" in="SourceGraphic" in2="effect1_dropShadow_387_165" result="shape"/>
</filter>
<filter id="filter2_d_387_165" x="0.322464" y="0.598145" width="13" height="122.793" filterUnits="userSpaceOnUse" color-interpolation-filters="sRGB">
<feFlood flood-opacity="0" result="BackgroundImageFix"/>
<feColorMatrix in="SourceAlpha" type="matrix" values="0 0 0 0 0 0 0 0 0 0 0 0 0 0 0 0 0 0 127 0" result="hardAlpha"/>
<feOffset dy="4"/>
<feGaussianBlur stdDeviation="2"/>
<feComposite in2="hardAlpha" operator="out"/>
<feColorMatrix type="matrix" values="0 0 0 0 0 0 0 0 0 0 0 0 0 0 0 0 0 0 0.25 0"/>
<feBlend mode="normal" in2="BackgroundImageFix" result="effect1_dropShadow_387_165"/>
<feBlend mode="normal" in="SourceGraphic" in2="effect1_dropShadow_387_165" result="shape"/>
</filter>
<linearGradient id="paint0_linear_387_165" x1="36.9327" y1="30.1714" x2="91.0783" y2="39.7344" gradientUnits="userSpaceOnUse">
<stop stop-color="#E6C5CA" stop-opacity="0.952458"/>
<stop offset="1" stop-color="#F5E3E2"/>
</linearGradient>
<linearGradient id="paint1_linear_387_165" x1="62.9085" y1="19.5668" x2="62.9085" y2="45.917" gradientUnits="userSpaceOnUse">
<stop stop-color="#2F2D30"/>
<stop offset="1" stop-color="#717171"/>
</linearGradient>
</defs>
</svg>
