<svg width="105" height="126" viewBox="0 0 105 126" fill="none" xmlns="http://www.w3.org/2000/svg">
<g filter="url(#filter0_d_387_159)">
<path d="M43.2183 36.6L9.12976 36.6" stroke="#B35A66" stroke-width="5" stroke-linecap="round" stroke-linejoin="round"/>
</g>
<g filter="url(#filter1_d_387_159)">
<ellipse cx="65.9439" cy="36.6" rx="34.0885" ry="33.6" fill="#FFF2F1"/>
</g>
<path d="M70.7007 10.0097C85.6196 12.6026 95.559 26.618 92.9342 41.2908C90.3094 55.9637 76.1061 65.7831 61.1872 63.1902C46.2682 60.5972 36.3288 46.5818 38.9536 31.909C41.5785 17.2362 55.7817 7.41675 70.7007 10.0097Z" stroke="url(#paint0_linear_387_159)" stroke-width="2"/>
<path d="M62.9166 41.2467C62.5422 41.7268 64.3896 41.9669 68.4586 41.9669C69.0689 41.9669 69.5043 41.8082 69.7647 41.4908C70.0251 41.1735 70.3222 40.2946 70.6558 38.8541H71.4859L71.0953 43.92H60.1578V43.2609L63.71 39.2203C65.6876 37.0719 66.8757 35.721 67.2745 35.1676C67.8442 34.3782 68.2592 33.6173 68.5196 32.8849C68.78 32.1443 68.9102 31.4729 68.9102 30.8707C68.9102 29.8698 68.6335 29.0844 68.0802 28.5148C67.5268 27.937 66.7577 27.6481 65.773 27.6481C64.6663 27.6481 63.7629 27.9126 63.0631 28.4415C62.3632 28.9705 62.0133 29.532 62.0133 30.1261C62.0133 30.3295 62.0662 30.4842 62.172 30.59C62.2696 30.6958 62.4812 30.7893 62.8067 30.8707C63.6287 31.066 64.0396 31.5462 64.0396 32.3112C64.0396 32.7262 63.9013 33.0721 63.6246 33.3488C63.3479 33.6173 62.9939 33.7516 62.5626 33.7516C62.0662 33.7516 61.6308 33.5237 61.2564 33.068C60.8821 32.6041 60.6949 32.0019 60.6949 31.2614C60.6949 30.4313 60.9065 29.6785 61.3297 29.0031C61.761 28.3195 62.408 27.762 63.2706 27.3307C64.1332 26.8912 65.061 26.6715 66.0538 26.6715C67.0385 26.6715 67.95 26.8831 68.7882 27.3063C69.6345 27.7295 70.2693 28.2869 70.6925 28.9786C71.1156 29.6622 71.3272 30.4109 71.3272 31.2247C71.3272 31.7863 71.2214 32.3559 71.0098 32.9337C70.7983 33.5115 70.489 34.0527 70.0821 34.5573C69.3822 35.428 68.662 36.1726 67.9215 36.7911L64.6988 39.5011C63.885 40.1847 63.2909 40.7666 62.9166 41.2467Z" fill="url(#paint1_linear_387_159)"/>
<g filter="url(#filter2_d_387_159)">
<path d="M6.85721 3L6.85721 115" stroke="#B35A66" stroke-width="5" stroke-linecap="round" stroke-linejoin="round"/>
</g>
<defs>
<filter id="filter0_d_387_159" x="2.62976" y="34.1" width="47.0885" height="13" filterUnits="userSpaceOnUse" color-interpolation-filters="sRGB">
<feFlood flood-opacity="0" result="BackgroundImageFix"/>
<feColorMatrix in="SourceAlpha" type="matrix" values="0 0 0 0 0 0 0 0 0 0 0 0 0 0 0 0 0 0 127 0" result="hardAlpha"/>
<feOffset dy="4"/>
<feGaussianBlur stdDeviation="2"/>
<feComposite in2="hardAlpha" operator="out"/>
<feColorMatrix type="matrix" values="0 0 0 0 0 0 0 0 0 0 0 0 0 0 0 0 0 0 0.25 0"/>
<feBlend mode="normal" in2="BackgroundImageFix" result="effect1_dropShadow_387_159"/>
<feBlend mode="normal" in="SourceGraphic" in2="effect1_dropShadow_387_159" result="shape"/>
</filter>
<filter id="filter1_d_387_159" x="27.8554" y="3" width="76.177" height="75.2" filterUnits="userSpaceOnUse" color-interpolation-filters="sRGB">
<feFlood flood-opacity="0" result="BackgroundImageFix"/>
<feColorMatrix in="SourceAlpha" type="matrix" values="0 0 0 0 0 0 0 0 0 0 0 0 0 0 0 0 0 0 127 0" result="hardAlpha"/>
<feOffset dy="4"/>
<feGaussianBlur stdDeviation="2"/>
<feComposite in2="hardAlpha" operator="out"/>
<feColorMatrix type="matrix" values="0 0 0 0 0 0 0 0 0 0 0 0 0 0 0 0 0 0 0.25 0"/>
<feBlend mode="normal" in2="BackgroundImageFix" result="effect1_dropShadow_387_159"/>
<feBlend mode="normal" in="SourceGraphic" in2="effect1_dropShadow_387_159" result="shape"/>
</filter>
<filter id="filter2_d_387_159" x="0.357208" y="0.5" width="13" height="125" filterUnits="userSpaceOnUse" color-interpolation-filters="sRGB">
<feFlood flood-opacity="0" result="BackgroundImageFix"/>
<feColorMatrix in="SourceAlpha" type="matrix" values="0 0 0 0 0 0 0 0 0 0 0 0 0 0 0 0 0 0 127 0" result="hardAlpha"/>
<feOffset dy="4"/>
<feGaussianBlur stdDeviation="2"/>
<feComposite in2="hardAlpha" operator="out"/>
<feColorMatrix type="matrix" values="0 0 0 0 0 0 0 0 0 0 0 0 0 0 0 0 0 0 0.25 0"/>
<feBlend mode="normal" in2="BackgroundImageFix" result="effect1_dropShadow_387_159"/>
<feBlend mode="normal" in="SourceGraphic" in2="effect1_dropShadow_387_159" result="shape"/>
</filter>
<linearGradient id="paint0_linear_387_159" x1="37.9684" y1="31.7378" x2="93.8701" y2="41.738" gradientUnits="userSpaceOnUse">
<stop stop-color="#B35A66"/>
<stop offset="1" stop-color="#F5E3E2"/>
</linearGradient>
<linearGradient id="paint1_linear_387_159" x1="65.9439" y1="20.92" x2="65.9439" y2="47.8" gradientUnits="userSpaceOnUse">
<stop stop-color="#2F2D30"/>
<stop offset="1" stop-color="#717171"/>
</linearGradient>
</defs>
</svg>
