<svg width="240" height="184" viewBox="0 0 240 184" fill="none" xmlns="http://www.w3.org/2000/svg">
<g filter="url(#filter0_d_160_303)">
<path d="M119.592 6.51978L118.924 73.5445" stroke="#CA848A" stroke-width="5" stroke-linecap="round" stroke-linejoin="round"/>
</g>
<g filter="url(#filter1_d_160_303)">
<path d="M7.24414 2.79358L232.802 2.79358" stroke="#CA848A" stroke-width="5" stroke-linecap="round" stroke-linejoin="round"/>
</g>
<g filter="url(#filter2_d_160_303)">
<ellipse cx="67.3518" cy="69.0768" rx="67.3518" ry="69.0768" transform="matrix(0.0099703 -0.99995 0.999955 0.00947851 49.8467 174.892)" fill="#FFF2F1"/>
</g>
<path d="M123.029 110.188C125.124 110.701 126.757 111.551 127.929 112.737C129.423 114.246 130.17 116.114 130.17 118.34C130.17 120.86 129.277 122.881 127.489 124.405C125.453 126.163 122.802 127.042 119.535 127.042C117.572 127.042 115.881 126.719 114.46 126.075C113.053 125.43 111.999 124.559 111.296 123.46C110.592 122.361 110.241 121.124 110.241 119.747C110.241 118.633 110.512 117.754 111.054 117.11C111.596 116.465 112.277 116.143 113.097 116.143C113.844 116.143 114.445 116.392 114.899 116.89C115.353 117.374 115.58 118.04 115.58 118.89C115.58 119.432 115.463 119.893 115.229 120.274C114.994 120.64 114.584 120.984 113.998 121.307C113.368 121.644 113.053 121.966 113.053 122.273C113.053 122.713 113.273 123.211 113.713 123.768C114.167 124.31 114.826 124.749 115.69 125.086C116.569 125.408 117.675 125.569 119.008 125.569C121.308 125.569 123.007 125.005 124.106 123.877C125.219 122.735 125.776 120.911 125.776 118.406C125.776 115.784 125.299 113.924 124.347 112.825C123.41 111.712 122.011 111.155 120.151 111.155C119.653 111.155 119.03 111.214 118.283 111.331C117.682 111.419 117.25 111.463 116.987 111.463C116.547 111.463 116.203 111.375 115.954 111.199C115.719 111.009 115.602 110.774 115.602 110.496C115.602 110.188 115.712 109.954 115.932 109.793C116.166 109.617 116.54 109.529 117.052 109.529L118.261 109.573L119.316 109.617C121.176 109.617 122.575 109.141 123.512 108.189C124.45 107.237 124.919 105.765 124.919 103.772C124.919 101.326 124.472 99.5903 123.578 98.5649C122.685 97.5249 121.352 97.0049 119.579 97.0049C117.953 97.0049 116.657 97.2979 115.69 97.8838C114.723 98.4697 114.24 99.0117 114.24 99.5098C114.24 99.832 114.518 100.264 115.075 100.806C115.866 101.539 116.261 102.3 116.261 103.091C116.261 103.692 116.042 104.197 115.602 104.607C115.163 105.018 114.599 105.223 113.91 105.223C113.178 105.223 112.577 104.944 112.109 104.388C111.654 103.831 111.427 103.055 111.427 102.059C111.427 100.506 111.984 99.1289 113.097 97.9277C114.679 96.2285 116.943 95.3789 119.887 95.3789C122.641 95.3789 124.838 96.1187 126.479 97.5981C128.119 99.0776 128.94 100.909 128.94 103.091C128.94 104.659 128.493 106.014 127.599 107.156C126.72 108.299 125.197 109.31 123.029 110.188Z" fill="url(#paint0_linear_160_303)"/>
<path d="M175.796 109.23C175.629 139.341 150.45 163.794 119.505 163.794C88.5592 163.794 63.6518 139.341 63.8187 109.23C63.9856 79.1185 89.1641 54.6655 120.11 54.6655C151.055 54.6655 175.963 79.1185 175.796 109.23Z" stroke="url(#paint1_linear_160_303)" stroke-width="2"/>
<defs>
<filter id="filter0_d_160_303" x="112.424" y="4.01978" width="13.6682" height="80.0248" filterUnits="userSpaceOnUse" color-interpolation-filters="sRGB">
<feFlood flood-opacity="0" result="BackgroundImageFix"/>
<feColorMatrix in="SourceAlpha" type="matrix" values="0 0 0 0 0 0 0 0 0 0 0 0 0 0 0 0 0 0 127 0" result="hardAlpha"/>
<feOffset dy="4"/>
<feGaussianBlur stdDeviation="2"/>
<feComposite in2="hardAlpha" operator="out"/>
<feColorMatrix type="matrix" values="0 0 0 0 0 0 0 0 0 0 0 0 0 0 0 0 0 0 0.25 0"/>
<feBlend mode="normal" in2="BackgroundImageFix" result="effect1_dropShadow_160_303"/>
<feBlend mode="normal" in="SourceGraphic" in2="effect1_dropShadow_160_303" result="shape"/>
</filter>
<filter id="filter1_d_160_303" x="0.744141" y="0.293579" width="238.558" height="13" filterUnits="userSpaceOnUse" color-interpolation-filters="sRGB">
<feFlood flood-opacity="0" result="BackgroundImageFix"/>
<feColorMatrix in="SourceAlpha" type="matrix" values="0 0 0 0 0 0 0 0 0 0 0 0 0 0 0 0 0 0 127 0" result="hardAlpha"/>
<feOffset dy="4"/>
<feGaussianBlur stdDeviation="2"/>
<feComposite in2="hardAlpha" operator="out"/>
<feColorMatrix type="matrix" values="0 0 0 0 0 0 0 0 0 0 0 0 0 0 0 0 0 0 0.25 0"/>
<feBlend mode="normal" in2="BackgroundImageFix" result="effect1_dropShadow_160_303"/>
<feBlend mode="normal" in="SourceGraphic" in2="effect1_dropShadow_160_303" result="shape"/>
</filter>
<filter id="filter2_d_160_303" x="46.5149" y="40.8469" width="146.154" height="142.703" filterUnits="userSpaceOnUse" color-interpolation-filters="sRGB">
<feFlood flood-opacity="0" result="BackgroundImageFix"/>
<feColorMatrix in="SourceAlpha" type="matrix" values="0 0 0 0 0 0 0 0 0 0 0 0 0 0 0 0 0 0 127 0" result="hardAlpha"/>
<feOffset dy="4"/>
<feGaussianBlur stdDeviation="2"/>
<feComposite in2="hardAlpha" operator="out"/>
<feColorMatrix type="matrix" values="0 0 0 0 0 0 0 0 0 0 0 0 0 0 0 0 0 0 0.25 0"/>
<feBlend mode="normal" in2="BackgroundImageFix" result="effect1_dropShadow_160_303"/>
<feBlend mode="normal" in="SourceGraphic" in2="effect1_dropShadow_160_303" result="shape"/>
</filter>
<linearGradient id="paint0_linear_160_303" x1="119.733" y1="82.4263" x2="119.733" y2="135.208" gradientUnits="userSpaceOnUse">
<stop stop-color="#2F2D30"/>
<stop offset="1" stop-color="#717171"/>
</linearGradient>
<linearGradient id="paint1_linear_160_303" x1="120.115" y1="53.6655" x2="120.115" y2="164.794" gradientUnits="userSpaceOnUse">
<stop stop-color="#CA848A"/>
<stop offset="1" stop-color="#F5E3E2"/>
</linearGradient>
</defs>
</svg>
