<svg width="99" height="123" viewBox="0 0 99 123" fill="none" xmlns="http://www.w3.org/2000/svg">
<g filter="url(#filter0_d_197_118)">
<path d="M92.1384 40.949L57.7987 40.949" stroke="#CA848A" stroke-width="5" stroke-linecap="round" stroke-linejoin="round"/>
</g>
<g filter="url(#filter1_d_197_118)">
<ellipse cx="38.3396" cy="34.4286" rx="34.3396" ry="32.602" fill="#FFF2F1"/>
</g>
<path d="M43.1262 60.201C28.0607 62.723 13.7796 53.1703 11.1443 38.9812C8.50905 24.7921 18.4876 11.1782 33.5531 8.65612C48.6185 6.13409 62.8997 15.6869 65.535 29.8759C68.1702 44.065 58.1917 57.679 43.1262 60.201Z" stroke="url(#paint0_linear_197_118)" stroke-width="2"/>
<path d="M40.1707 34.28C41.3344 34.5649 42.2418 35.0369 42.8928 35.696C43.7229 36.5343 44.1379 37.5719 44.1379 38.8088C44.1379 40.2086 43.6415 41.3316 42.6487 42.178C41.5175 43.1545 40.0445 43.6428 38.2297 43.6428C37.1392 43.6428 36.1993 43.4638 35.4099 43.1057C34.6287 42.7476 34.0427 42.2634 33.6521 41.6531C33.2615 41.0427 33.0662 40.3551 33.0662 39.5901C33.0662 38.9716 33.2167 38.4833 33.5178 38.1252C33.8189 37.7672 34.1974 37.5881 34.6531 37.5881C35.0681 37.5881 35.4018 37.7265 35.6541 38.0032C35.9063 38.2717 36.0325 38.642 36.0325 39.114C36.0325 39.4151 35.9674 39.6715 35.8372 39.8831C35.707 40.0865 35.4791 40.2778 35.1536 40.4568C34.8036 40.644 34.6287 40.823 34.6287 40.9939C34.6287 41.238 34.7507 41.5147 34.9949 41.824C35.2472 42.1251 35.6134 42.3692 36.0935 42.5564C36.5818 42.7354 37.1962 42.825 37.9368 42.825C39.2144 42.825 40.1585 42.5116 40.7688 41.885C41.3873 41.2502 41.6965 40.2371 41.6965 38.8455C41.6965 37.3888 41.4321 36.3552 40.9031 35.7449C40.3823 35.1264 39.6051 34.8171 38.5715 34.8171C38.2948 34.8171 37.949 34.8497 37.5339 34.9148C37.2003 34.9636 36.9602 34.988 36.8137 34.988C36.5696 34.988 36.3783 34.9392 36.24 34.8416C36.1098 34.7358 36.0447 34.6056 36.0447 34.4509C36.0447 34.28 36.1057 34.1498 36.2278 34.0603C36.358 33.9626 36.5655 33.9138 36.8503 33.9138L37.5217 33.9382L38.1077 33.9626C39.1412 33.9626 39.9184 33.6982 40.4392 33.1692C40.96 32.6402 41.2205 31.8223 41.2205 30.7156C41.2205 29.3565 40.9723 28.3922 40.4758 27.8225C39.9794 27.2447 39.2389 26.9558 38.2542 26.9558C37.3508 26.9558 36.6306 27.1186 36.0935 27.4441C35.5564 27.7696 35.2878 28.0707 35.2878 28.3474C35.2878 28.5264 35.4425 28.7665 35.7517 29.0676C36.1912 29.4745 36.4109 29.8977 36.4109 30.3372C36.4109 30.6708 36.2888 30.9516 36.0447 31.1794C35.8005 31.4073 35.4872 31.5212 35.1047 31.5212C34.6978 31.5212 34.3642 31.3666 34.1038 31.0574C33.8515 30.7481 33.7253 30.3168 33.7253 29.7634C33.7253 28.9008 34.0346 28.1358 34.6531 27.4685C35.532 26.5245 36.7893 26.0525 38.4251 26.0525C39.955 26.0525 41.1757 26.4635 42.0872 27.2854C42.9986 28.1073 43.4544 29.1246 43.4544 30.3372C43.4544 31.2079 43.2061 31.9607 42.7097 32.5955C42.2214 33.2302 41.3751 33.7917 40.1707 34.28Z" fill="url(#paint1_linear_197_118)"/>
<g filter="url(#filter2_d_197_118)">
<path d="M92.1384 2.91333L92.1384 111.587" stroke="#CA848A" stroke-width="5" stroke-linecap="round" stroke-linejoin="round"/>
</g>
<defs>
<filter id="filter0_d_197_118" x="51.2987" y="38.449" width="47.3396" height="13" filterUnits="userSpaceOnUse" color-interpolation-filters="sRGB">
<feFlood flood-opacity="0" result="BackgroundImageFix"/>
<feColorMatrix in="SourceAlpha" type="matrix" values="0 0 0 0 0 0 0 0 0 0 0 0 0 0 0 0 0 0 127 0" result="hardAlpha"/>
<feOffset dy="4"/>
<feGaussianBlur stdDeviation="2"/>
<feComposite in2="hardAlpha" operator="out"/>
<feColorMatrix type="matrix" values="0 0 0 0 0 0 0 0 0 0 0 0 0 0 0 0 0 0 0.25 0"/>
<feBlend mode="normal" in2="BackgroundImageFix" result="effect1_dropShadow_197_118"/>
<feBlend mode="normal" in="SourceGraphic" in2="effect1_dropShadow_197_118" result="shape"/>
</filter>
<filter id="filter1_d_197_118" x="0" y="1.82654" width="76.6792" height="73.2041" filterUnits="userSpaceOnUse" color-interpolation-filters="sRGB">
<feFlood flood-opacity="0" result="BackgroundImageFix"/>
<feColorMatrix in="SourceAlpha" type="matrix" values="0 0 0 0 0 0 0 0 0 0 0 0 0 0 0 0 0 0 127 0" result="hardAlpha"/>
<feOffset dy="4"/>
<feGaussianBlur stdDeviation="2"/>
<feComposite in2="hardAlpha" operator="out"/>
<feColorMatrix type="matrix" values="0 0 0 0 0 0 0 0 0 0 0 0 0 0 0 0 0 0 0.25 0"/>
<feBlend mode="normal" in2="BackgroundImageFix" result="effect1_dropShadow_197_118"/>
<feBlend mode="normal" in="SourceGraphic" in2="effect1_dropShadow_197_118" result="shape"/>
</filter>
<filter id="filter2_d_197_118" x="85.6384" y="0.41333" width="13" height="121.673" filterUnits="userSpaceOnUse" color-interpolation-filters="sRGB">
<feFlood flood-opacity="0" result="BackgroundImageFix"/>
<feColorMatrix in="SourceAlpha" type="matrix" values="0 0 0 0 0 0 0 0 0 0 0 0 0 0 0 0 0 0 127 0" result="hardAlpha"/>
<feOffset dy="4"/>
<feGaussianBlur stdDeviation="2"/>
<feComposite in2="hardAlpha" operator="out"/>
<feColorMatrix type="matrix" values="0 0 0 0 0 0 0 0 0 0 0 0 0 0 0 0 0 0 0.25 0"/>
<feBlend mode="normal" in2="BackgroundImageFix" result="effect1_dropShadow_197_118"/>
<feBlend mode="normal" in="SourceGraphic" in2="effect1_dropShadow_197_118" result="shape"/>
</filter>
<linearGradient id="paint0_linear_197_118" x1="66.5212" y1="29.7108" x2="10.3434" y2="40.1444" gradientUnits="userSpaceOnUse">
<stop stop-color="#CA848A"/>
<stop offset="1" stop-color="#F5E3E2"/>
</linearGradient>
<linearGradient id="paint1_linear_197_118" x1="38.3396" y1="20.301" x2="38.3396" y2="46.3827" gradientUnits="userSpaceOnUse">
<stop stop-color="#2F2D30"/>
<stop offset="1" stop-color="#717171"/>
</linearGradient>
</defs>
</svg>
