<svg width="99" height="123" viewBox="0 0 99 123" fill="none" xmlns="http://www.w3.org/2000/svg">
<g filter="url(#filter0_d_188_119)">
<path d="M92.1384 41.1224L57.7987 41.1224" stroke="#5D2935" stroke-width="5" stroke-linecap="round" stroke-linejoin="round"/>
</g>
<g filter="url(#filter1_d_188_119)">
<ellipse cx="38.3396" cy="34.602" rx="34.3396" ry="32.602" fill="#FFF2F1"/>
</g>
<path d="M43.1262 60.3744C28.0607 62.8965 13.7796 53.3437 11.1443 39.1546C8.50904 24.9656 18.4876 11.3516 33.553 8.82959C48.6185 6.30755 62.8997 15.8603 65.535 30.0494C68.1702 44.2385 58.1917 57.8524 43.1262 60.3744Z" stroke="url(#paint0_linear_188_119)" stroke-width="2"/>
<g filter="url(#filter2_d_188_119)">
<path d="M92.1384 3.08679L92.1384 111.76" stroke="#5D2935" stroke-width="5" stroke-linecap="round" stroke-linejoin="round"/>
</g>
<path d="M39.8655 26.5433V41.7777C39.8655 42.0056 39.9469 42.1805 40.1096 42.3026C40.3456 42.4735 40.6345 42.559 40.9763 42.559H43.3445V43.4745H34.5676V42.559H36.594C37.0172 42.559 37.3305 42.4613 37.5339 42.266C37.7374 42.0625 37.8391 41.794 37.8391 41.4603V29.9491C37.8391 29.7131 37.7455 29.5137 37.5584 29.351C37.3712 29.1882 37.1311 29.1068 36.8381 29.1068H34.1282V28.2645C35.3977 28.1018 36.4272 27.8861 37.2166 27.6176C38.0059 27.3409 38.7017 26.9828 39.304 26.5433H39.8655Z" fill="url(#paint1_linear_188_119)"/>
<defs>
<filter id="filter0_d_188_119" x="51.2987" y="38.6224" width="47.3396" height="13" filterUnits="userSpaceOnUse" color-interpolation-filters="sRGB">
<feFlood flood-opacity="0" result="BackgroundImageFix"/>
<feColorMatrix in="SourceAlpha" type="matrix" values="0 0 0 0 0 0 0 0 0 0 0 0 0 0 0 0 0 0 127 0" result="hardAlpha"/>
<feOffset dy="4"/>
<feGaussianBlur stdDeviation="2"/>
<feComposite in2="hardAlpha" operator="out"/>
<feColorMatrix type="matrix" values="0 0 0 0 0 0 0 0 0 0 0 0 0 0 0 0 0 0 0.25 0"/>
<feBlend mode="normal" in2="BackgroundImageFix" result="effect1_dropShadow_188_119"/>
<feBlend mode="normal" in="SourceGraphic" in2="effect1_dropShadow_188_119" result="shape"/>
</filter>
<filter id="filter1_d_188_119" x="0" y="2" width="76.6792" height="73.2041" filterUnits="userSpaceOnUse" color-interpolation-filters="sRGB">
<feFlood flood-opacity="0" result="BackgroundImageFix"/>
<feColorMatrix in="SourceAlpha" type="matrix" values="0 0 0 0 0 0 0 0 0 0 0 0 0 0 0 0 0 0 127 0" result="hardAlpha"/>
<feOffset dy="4"/>
<feGaussianBlur stdDeviation="2"/>
<feComposite in2="hardAlpha" operator="out"/>
<feColorMatrix type="matrix" values="0 0 0 0 0 0 0 0 0 0 0 0 0 0 0 0 0 0 0.25 0"/>
<feBlend mode="normal" in2="BackgroundImageFix" result="effect1_dropShadow_188_119"/>
<feBlend mode="normal" in="SourceGraphic" in2="effect1_dropShadow_188_119" result="shape"/>
</filter>
<filter id="filter2_d_188_119" x="85.6384" y="0.586792" width="13" height="121.673" filterUnits="userSpaceOnUse" color-interpolation-filters="sRGB">
<feFlood flood-opacity="0" result="BackgroundImageFix"/>
<feColorMatrix in="SourceAlpha" type="matrix" values="0 0 0 0 0 0 0 0 0 0 0 0 0 0 0 0 0 0 127 0" result="hardAlpha"/>
<feOffset dy="4"/>
<feGaussianBlur stdDeviation="2"/>
<feComposite in2="hardAlpha" operator="out"/>
<feColorMatrix type="matrix" values="0 0 0 0 0 0 0 0 0 0 0 0 0 0 0 0 0 0 0.25 0"/>
<feBlend mode="normal" in2="BackgroundImageFix" result="effect1_dropShadow_188_119"/>
<feBlend mode="normal" in="SourceGraphic" in2="effect1_dropShadow_188_119" result="shape"/>
</filter>
<linearGradient id="paint0_linear_188_119" x1="66.5212" y1="29.8843" x2="10.3434" y2="40.3179" gradientUnits="userSpaceOnUse">
<stop stop-color="#5D2935"/>
<stop offset="1" stop-color="#E3BEC0"/>
</linearGradient>
<linearGradient id="paint1_linear_188_119" x1="38.3396" y1="20.4745" x2="38.3396" y2="46.5561" gradientUnits="userSpaceOnUse">
<stop stop-color="#2F2D30"/>
<stop offset="1" stop-color="#717171"/>
</linearGradient>
</defs>
</svg>
