<svg width="105" height="122" viewBox="0 0 105 122" fill="none" xmlns="http://www.w3.org/2000/svg">
<g filter="url(#filter0_d_194_117)">
<path d="M43.7673 35.3623L9.42768 35.3623" stroke="#B35A66" stroke-width="5" stroke-linecap="round" stroke-linejoin="round"/>
</g>
<g filter="url(#filter1_d_194_117)">
<ellipse cx="66.6604" cy="35.3623" rx="34.3396" ry="32.602" fill="#FFF2F1"/>
</g>
<path d="M71.4469 9.58971C86.5124 12.1117 96.491 25.7257 93.8557 39.9148C91.2204 54.1038 76.9393 63.6566 61.8738 61.1346C46.8083 58.6125 36.8298 44.9986 39.465 30.8095C42.1003 16.6204 56.3815 7.06768 71.4469 9.58971Z" stroke="url(#paint0_linear_194_117)" stroke-width="2"/>
<path d="M63.633 40.4746C63.2587 40.9548 65.106 41.1948 69.175 41.1948C69.7854 41.1948 70.2208 41.0361 70.4812 40.7188C70.7416 40.4014 71.0386 39.5225 71.3723 38.082H72.2024L71.8117 43.1479H60.8742V42.4888L64.4265 38.4482C66.404 36.2998 67.5922 34.9489 67.9909 34.3955C68.5606 33.6061 68.9756 32.8452 69.2361 32.1128C69.4965 31.3722 69.6267 30.7008 69.6267 30.0986C69.6267 29.0977 69.35 28.3123 68.7966 27.7427C68.2432 27.1649 67.4742 26.876 66.4895 26.876C65.3827 26.876 64.4794 27.1405 63.7795 27.6694C63.0796 28.1984 62.7297 28.7599 62.7297 29.354C62.7297 29.5575 62.7826 29.7121 62.8884 29.8179C62.9861 29.9237 63.1976 30.0173 63.5232 30.0986C64.3451 30.2939 64.7561 30.7741 64.7561 31.5391C64.7561 31.9541 64.6177 32.3 64.341 32.5767C64.0643 32.8452 63.7103 32.9795 63.279 32.9795C62.7826 32.9795 62.3472 32.7516 61.9729 32.2959C61.5985 31.832 61.4114 31.2298 61.4114 30.4893C61.4114 29.6592 61.6229 28.9064 62.0461 28.231C62.4774 27.5474 63.1244 26.9899 63.987 26.5586C64.8497 26.1191 65.7774 25.8994 66.7702 25.8994C67.7549 25.8994 68.6664 26.111 69.5046 26.5342C70.351 26.9574 70.9857 27.5148 71.4089 28.2065C71.8321 28.8901 72.0437 29.6388 72.0437 30.4526C72.0437 31.0142 71.9379 31.5838 71.7263 32.1616C71.5147 32.7394 71.2055 33.2806 70.7986 33.7852C70.0987 34.6559 69.3785 35.4006 68.6379 36.019L65.4153 38.729C64.6015 39.4126 64.0074 39.9945 63.633 40.4746Z" fill="url(#paint1_linear_194_117)"/>
<g filter="url(#filter2_d_194_117)">
<path d="M7.13837 2.76025L7.13837 111.434" stroke="#B35A66" stroke-width="5" stroke-linecap="round" stroke-linejoin="round"/>
</g>
<defs>
<filter id="filter0_d_194_117" x="2.92768" y="32.8623" width="47.3396" height="13" filterUnits="userSpaceOnUse" color-interpolation-filters="sRGB">
<feFlood flood-opacity="0" result="BackgroundImageFix"/>
<feColorMatrix in="SourceAlpha" type="matrix" values="0 0 0 0 0 0 0 0 0 0 0 0 0 0 0 0 0 0 127 0" result="hardAlpha"/>
<feOffset dy="4"/>
<feGaussianBlur stdDeviation="2"/>
<feComposite in2="hardAlpha" operator="out"/>
<feColorMatrix type="matrix" values="0 0 0 0 0 0 0 0 0 0 0 0 0 0 0 0 0 0 0.25 0"/>
<feBlend mode="normal" in2="BackgroundImageFix" result="effect1_dropShadow_194_117"/>
<feBlend mode="normal" in="SourceGraphic" in2="effect1_dropShadow_194_117" result="shape"/>
</filter>
<filter id="filter1_d_194_117" x="28.3207" y="2.76025" width="76.6792" height="73.2041" filterUnits="userSpaceOnUse" color-interpolation-filters="sRGB">
<feFlood flood-opacity="0" result="BackgroundImageFix"/>
<feColorMatrix in="SourceAlpha" type="matrix" values="0 0 0 0 0 0 0 0 0 0 0 0 0 0 0 0 0 0 127 0" result="hardAlpha"/>
<feOffset dy="4"/>
<feGaussianBlur stdDeviation="2"/>
<feComposite in2="hardAlpha" operator="out"/>
<feColorMatrix type="matrix" values="0 0 0 0 0 0 0 0 0 0 0 0 0 0 0 0 0 0 0.25 0"/>
<feBlend mode="normal" in2="BackgroundImageFix" result="effect1_dropShadow_194_117"/>
<feBlend mode="normal" in="SourceGraphic" in2="effect1_dropShadow_194_117" result="shape"/>
</filter>
<filter id="filter2_d_194_117" x="0.638367" y="0.260254" width="13" height="121.673" filterUnits="userSpaceOnUse" color-interpolation-filters="sRGB">
<feFlood flood-opacity="0" result="BackgroundImageFix"/>
<feColorMatrix in="SourceAlpha" type="matrix" values="0 0 0 0 0 0 0 0 0 0 0 0 0 0 0 0 0 0 127 0" result="hardAlpha"/>
<feOffset dy="4"/>
<feGaussianBlur stdDeviation="2"/>
<feComposite in2="hardAlpha" operator="out"/>
<feColorMatrix type="matrix" values="0 0 0 0 0 0 0 0 0 0 0 0 0 0 0 0 0 0 0.25 0"/>
<feBlend mode="normal" in2="BackgroundImageFix" result="effect1_dropShadow_194_117"/>
<feBlend mode="normal" in="SourceGraphic" in2="effect1_dropShadow_194_117" result="shape"/>
</filter>
<linearGradient id="paint0_linear_194_117" x1="38.4788" y1="30.6444" x2="94.6566" y2="41.078" gradientUnits="userSpaceOnUse">
<stop stop-color="#B35A66"/>
<stop offset="1" stop-color="#F5E3E2"/>
</linearGradient>
<linearGradient id="paint1_linear_194_117" x1="66.6604" y1="20.1479" x2="66.6604" y2="46.2296" gradientUnits="userSpaceOnUse">
<stop stop-color="#2F2D30"/>
<stop offset="1" stop-color="#717171"/>
</linearGradient>
</defs>
</svg>
