<svg width="639" height="375" viewBox="0 0 639 375" fill="none" xmlns="http://www.w3.org/2000/svg">
<rect x="1" y="8.69232" width="637" height="365.308" rx="6" stroke="#5D2935" stroke-width="2"/>
<line y1="47.5769" x2="595.646" y2="47.5769" stroke="#5D2935"/>
<path d="M35.3143 28.8461C35.3143 34.952 30.4652 39.8846 24.5046 39.8846C18.5439 39.8846 13.6948 34.952 13.6948 28.8461C13.6948 22.7403 18.5439 17.8077 24.5046 17.8077C30.4652 17.8077 35.3143 22.7403 35.3143 28.8461Z" stroke="#5D2935"/>
<path d="M61.7035 28.8461C61.7035 34.952 56.8544 39.8846 50.8937 39.8846C44.9331 39.8846 40.084 34.952 40.084 28.8461C40.084 22.7403 44.9331 17.8077 50.8937 17.8077C56.8544 17.8077 61.7035 22.7403 61.7035 28.8461Z" stroke="#5D2935"/>
<path d="M611.921 32.013C611.548 32.0563 611.241 31.987 610.998 31.805C610.764 31.623 610.647 31.3587 610.647 31.012C610.647 30.7347 610.738 30.427 610.92 30.089C611.111 29.751 611.353 29.3913 611.648 29.01C611.362 28.672 611.124 28.347 610.933 28.035C610.751 27.723 610.66 27.4153 610.66 27.112C610.66 26.7307 610.76 26.436 610.959 26.228C611.158 26.02 611.431 25.916 611.778 25.916C612.038 25.916 612.315 26.0113 612.61 26.202C612.905 26.3927 613.208 26.6397 613.52 26.943C613.841 26.631 614.157 26.3797 614.469 26.189C614.79 25.9897 615.106 25.89 615.418 25.89C615.747 25.89 616.007 25.994 616.198 26.202C616.397 26.41 616.484 26.683 616.458 27.021C616.432 27.3243 616.324 27.645 616.133 27.983C615.942 28.3123 615.704 28.6547 615.418 29.01C615.721 29.3827 615.968 29.7337 616.159 30.063C616.35 30.3923 616.445 30.6827 616.445 30.934C616.445 31.2633 616.341 31.5277 616.133 31.727C615.934 31.9177 615.656 32.013 615.301 32.013C615.067 32.013 614.798 31.922 614.495 31.74C614.192 31.558 613.875 31.3197 613.546 31.025C613.251 31.3023 612.965 31.5277 612.688 31.701C612.419 31.8743 612.164 31.9783 611.921 32.013Z" fill="#5D2935"/>
</svg>
